<svg width="76" height="95" viewBox="0 0 76 95" fill="none" xmlns="http://www.w3.org/2000/svg">
<circle cx="38" cy="38" r="38" fill="#84AF5A"/>
<line x1="38" y1="69" x2="38" y2="95" stroke="white" stroke-width="2"/>
<path d="M23.377 40.8421C22.8596 40.8421 22.4396 41.2666 22.4396 41.7895C22.4396 42.3124 22.8596 42.7369 23.377 42.7369C23.8944 42.7369 24.3144 42.3124 24.3144 41.7895C24.3144 41.2666 23.8944 40.8421 23.377 40.8421Z" fill="white"/>
<path d="M61.4667 24.9704C60.9318 24.2198 60.0998 23.7895 59.1842 23.7895H25.2517V22.8421C25.2517 22.0833 24.9591 21.3696 24.4278 20.8326C23.8965 20.2957 23.1903 20 22.4395 20C20.8888 20 19.6272 21.275 19.6272 22.8421V23.7895H16.8151C15.9001 23.7895 15.0685 24.2198 14.5335 24.9699C13.9988 25.7199 13.858 26.6532 14.1474 27.53C14.1498 27.5371 14.1522 27.5442 14.1548 27.5515L15.5021 31.3311C15.5908 31.5962 15.7185 31.8443 15.8776 32.0698V34.2105C15.8776 35.7776 17.1392 37.0526 18.6898 37.0526H19.6272V38.8431C19.6272 39.3597 19.4884 39.8666 19.2255 40.309L17.0301 44.0067C15.3647 46.8117 14.3231 49.8658 14.018 52.8387C13.9353 53.6467 14.1965 54.4557 14.7343 55.0586C15.2682 55.6567 16.0307 56 16.8262 56H23.1556C24.2277 56 25.1915 55.398 25.671 54.4285L29.5806 46.5263H35.5632C39.1814 46.5263 42.1251 43.5514 42.1251 39.8948V37.0527H45.4958C45.4969 37.0527 45.498 37.0529 45.499 37.0529C45.5 37.0529 45.5008 37.0527 45.5017 37.0527H54.0329C55.2694 37.0527 56.3481 36.251 56.7173 35.0573L57.2712 33.2632H57.8097C59.017 33.2632 60.085 32.4886 60.4724 31.3342L61.8433 27.5567C61.8465 27.5479 61.8495 27.539 61.8525 27.5302C62.142 26.6534 62.0013 25.7204 61.4667 24.9704ZM36.5007 25.6843H46.4373V26.6317C46.4373 27.154 46.0167 27.579 45.4999 27.579H37.4381C36.9213 27.579 36.5007 27.154 36.5007 26.6317V25.6843ZM21.5022 22.8422C21.5022 22.3199 21.9227 21.8948 22.4396 21.8948C22.6897 21.8948 22.9251 21.9935 23.1021 22.1725C23.2794 22.3517 23.377 22.5895 23.377 22.8422V23.7896H21.5022V22.8422ZM21.5022 25.6843H25.2518V31.3685H21.5022V25.6843ZM17.2769 30.7202C17.2746 30.7131 17.2721 30.7059 17.2695 30.6987L15.923 26.9215C15.8305 26.6319 15.8782 26.3249 16.0545 26.0776C16.2328 25.8275 16.51 25.6842 16.815 25.6842H19.6272V31.3684H18.1668C17.9456 31.3684 17.731 31.2889 17.561 31.1434C17.4296 31.0314 17.3313 30.885 17.2769 30.7202ZM27.1265 40.842C26.6088 40.842 26.1891 41.2663 26.1891 41.7894C26.1891 42.3125 26.6088 42.7368 27.1265 42.7368H29.3595L28.4221 44.6315H21.5022C20.9845 44.6315 20.5647 45.0558 20.5647 45.5789C20.5647 46.102 20.9845 46.5262 21.5022 46.5262H27.4847L26.5473 48.421H19.6273C19.1096 48.421 18.6899 48.8452 18.6899 49.3683C18.6899 49.8914 19.1096 50.3157 19.6273 50.3157H25.6099L23.9943 53.5812C23.8344 53.9044 23.513 54.1052 23.1558 54.1052H16.8264C16.5568 54.1052 16.3084 53.993 16.1267 53.7895C15.941 53.5814 15.8545 53.3129 15.883 53.0339C16.16 50.3351 17.1126 47.5506 18.6378 44.9815L20.8332 41.2841C21.2708 40.5474 21.5021 39.7033 21.5021 38.843V37.0525H32.1717L30.2969 40.842H27.1265V40.842ZM40.2504 39.8948C40.2504 42.5066 38.1478 44.6316 35.5634 44.6316H30.5182L33.0184 39.5779C33.663 41.4164 35.4009 42.7369 37.4381 42.7369C37.9558 42.7369 38.3755 42.3126 38.3755 41.7895C38.3755 41.2664 37.9558 40.8421 37.4381 40.8421C35.8875 40.8421 34.6259 39.5671 34.6259 38V37.0527H40.2503V39.8948H40.2504ZM44.9206 35.1579H33.7012C33.6927 35.1578 33.6839 35.1578 33.6753 35.1579H18.6899C18.1731 35.1579 17.7525 34.7328 17.7525 34.2106V33.2315C17.8891 33.2521 18.0275 33.2632 18.1669 33.2632H45.8581L44.9206 35.1579ZM54.9281 34.4925C54.805 34.8906 54.4454 35.1579 54.0332 35.1579H47.0167L47.9541 33.2631H55.3077L54.9281 34.4925ZM60.0778 26.9195L58.7081 30.6936C58.7048 30.7026 58.7018 30.7115 58.6988 30.7205C58.5711 31.1081 58.2138 31.3684 57.8099 31.3684H56.5881C56.5843 31.3684 56.5804 31.3684 56.5766 31.3684H27.1266V25.6842H34.6259V26.6316C34.6259 28.1987 35.8875 29.4737 37.4381 29.4737H45.4999C47.0505 29.4737 48.3121 28.1987 48.3121 26.6316V25.6842H59.1842C59.4898 25.6842 59.7673 25.8277 59.9457 26.0779C60.1215 26.3245 60.1695 26.6306 60.0778 26.9195Z" fill="white"/>
</svg>
