<svg width="76" height="95" viewBox="0 0 76 95" fill="none" xmlns="http://www.w3.org/2000/svg">
<circle cx="38" cy="38" r="38" fill="#84AF5A"/>
<line x1="38" y1="69" x2="38" y2="95" stroke="white" stroke-width="2"/>
<path d="M29.3702 22.9444C29.0031 22.5752 28.4089 22.5752 28.0418 22.9444C27.6756 23.3145 27.6756 23.9136 28.0418 24.2838C28.4088 24.653 29.0031 24.653 29.3702 24.2838C29.7364 23.9136 29.7364 23.3145 29.3702 22.9444Z" fill="white"/>
<path d="M61.7284 51.3562L53.0935 42.56C54.8909 39.6918 55.8376 36.3983 55.8376 32.9847C55.8376 23.0679 47.8358 15 38 15C28.1643 15 20.1626 23.0678 20.1626 32.9846C20.1626 36.3983 21.1093 39.6917 22.9066 42.5598L14.2716 51.356C14.0286 51.6034 13.9401 51.9655 14.041 52.2984C14.1419 52.6315 14.4161 52.8817 14.7548 52.95L20.1666 54.0415C20.3487 54.0782 20.5148 54.1677 20.6448 54.2983C20.7766 54.4316 20.8658 54.6 20.9028 54.7829L21.9842 60.2389C22.0522 60.5819 22.3024 60.8593 22.6348 60.9599C22.7237 60.9868 22.8146 61 22.9048 61C23.1516 61 23.3927 60.9018 23.5717 60.7197L33.6817 50.435C35.0899 50.7891 36.5397 50.9693 38 50.9693C39.4604 50.9693 40.9103 50.7891 42.3183 50.435L52.4285 60.7197C52.6074 60.9018 52.8485 61 53.0954 61C53.1855 61 53.2765 60.9869 53.3654 60.9599C53.6977 60.8593 53.9479 60.5819 54.0159 60.2389L55.0969 54.7855C55.1343 54.6 55.2236 54.4317 55.3532 54.3005C55.4853 54.1678 55.6515 54.0782 55.834 54.0415L61.2453 52.9501C61.5838 52.8818 61.858 52.6316 61.959 52.2985C62.0599 51.9656 61.9713 51.6035 61.7284 51.3562ZM23.4796 58.124L22.7433 54.4096C22.6961 54.175 22.6191 53.9501 22.5176 53.7376L25.7707 50.3764C26.1328 50.0021 26.1254 49.4029 25.7545 49.0377C25.3832 48.6728 24.7891 48.68 24.4268 49.0541L21.1851 52.4035C20.9789 52.3054 20.7612 52.2309 20.5343 52.1853L16.8324 51.4387L24.0087 44.1283C26.0132 46.6807 28.668 48.6444 31.6653 49.797L23.4796 58.124ZM42.3414 48.4709C42.3405 48.4711 42.3397 48.4713 42.3389 48.4715C40.9317 48.8727 39.4719 49.0762 37.9998 49.0762C36.5278 49.0762 35.068 48.8726 33.6607 48.4714C33.6599 48.4712 33.6592 48.471 33.6584 48.4709C33.6565 48.4703 33.6546 48.4699 33.6527 48.4693C30.1114 47.4579 26.9963 45.21 24.8811 42.1394C23.0223 39.4406 22.0398 36.275 22.0398 32.9846C22.0399 24.1117 29.1996 16.893 37.9998 16.893C46.8001 16.893 53.9597 24.1117 53.9597 32.9846C53.9597 36.2749 52.9772 39.4405 51.1185 42.1393C49.0033 45.2099 45.8882 47.4579 42.3468 48.4692C42.345 48.4699 42.3432 48.4703 42.3414 48.4709ZM55.4659 52.1851C55.2393 52.2307 55.0216 52.305 54.8153 52.4031L51.8429 49.3263C51.4811 48.9517 50.8868 48.9438 50.5153 49.3087C50.1439 49.6735 50.1361 50.2728 50.4979 50.6473L53.4825 53.7367C53.3807 53.9499 53.3033 54.1756 53.2559 54.4119L52.5201 58.1239L44.3345 49.7969C47.3318 48.6443 49.9865 46.6806 51.9911 44.1283L59.1673 51.4385L55.4659 52.1851Z" fill="white"/>
<path d="M47.3195 29.5021C47.209 29.1594 46.9151 28.9097 46.5616 28.8578L41.2014 28.0727L38.8052 23.1758C38.6471 22.8527 38.3208 22.6481 37.9633 22.6481H37.9632C37.6059 22.6481 37.2795 22.8526 37.1212 23.1757L34.7241 28.0727L29.3638 28.8579C29.0102 28.9098 28.7164 29.1594 28.606 29.5022C28.4955 29.8449 28.5877 30.2211 28.8436 30.4725L32.7222 34.2844L31.8067 39.6673C31.7463 40.0225 31.891 40.3815 32.1803 40.5932C32.4694 40.8049 32.8527 40.8328 33.1689 40.6651L37.9631 38.1234L42.7562 40.6651C42.8937 40.738 43.0437 40.7739 43.1932 40.7739C43.3878 40.7739 43.5815 40.713 43.745 40.5932C44.0341 40.3815 44.179 40.0226 44.1186 39.6673L43.203 34.2844L47.0816 30.4725C47.3379 30.221 47.4298 29.8448 47.3195 29.5021ZM41.5392 33.276C41.3179 33.4935 41.2169 33.8067 41.2691 34.1139L41.9465 38.0966L38.4003 36.2161C38.1267 36.071 37.7999 36.071 37.5263 36.2161L33.979 38.0967L34.6565 34.1139C34.7087 33.8068 34.6076 33.4936 34.3865 33.2761L31.5166 30.4557L35.4827 29.8747C35.7885 29.8298 36.0529 29.6362 36.1896 29.3568L37.9632 25.7337L39.7361 29.3568C39.8728 29.6362 40.1371 29.8298 40.4431 29.8747L44.4091 30.4557L41.5392 33.276Z" fill="white"/>
<path d="M37.9998 18.7861C35.6501 18.7861 33.3214 19.3846 31.2654 20.5168C30.8103 20.7673 30.643 21.3424 30.8915 21.8011C31.14 22.2601 31.7105 22.4287 32.1653 22.1782C33.9462 21.1975 35.9637 20.6791 37.9998 20.6791C44.7296 20.6791 50.2044 26.1992 50.2044 32.9845C50.2044 39.7697 44.7296 45.2898 37.9998 45.2898C31.2701 45.2898 25.7953 39.7697 25.7953 32.9845C25.7953 30.9303 26.3097 28.896 27.2828 27.1012C27.5315 26.6425 27.3643 26.0674 26.9093 25.8167C26.4545 25.5662 25.8839 25.7345 25.6352 26.1932C24.5115 28.2656 23.9176 30.614 23.9176 32.9846C23.9176 40.8135 30.2349 47.183 37.9998 47.183C45.7646 47.183 52.082 40.8135 52.082 32.9846C52.082 25.1556 45.7647 18.7861 37.9998 18.7861Z" fill="white"/>
</svg>
