<svg width="76" height="95" viewBox="0 0 76 95" fill="none" xmlns="http://www.w3.org/2000/svg">
<circle cx="38" cy="38" r="38" fill="#84AF5A"/>
<line x1="38" y1="69" x2="38" y2="95" stroke="white" stroke-width="2"/>
<path d="M29.6387 37.3865C29.4644 37.216 29.2225 37.1188 28.9759 37.1188C28.7293 37.1188 28.4875 37.2161 28.3131 37.3865C28.1388 37.558 28.0384 37.7945 28.0384 38.0348C28.0384 38.2768 28.1387 38.5125 28.3131 38.683C28.4875 38.8544 28.7293 38.9517 28.9759 38.9517C29.2225 38.9517 29.4644 38.8544 29.6387 38.683C29.813 38.5125 29.9134 38.2767 29.9134 38.0348C29.9134 37.7945 29.8131 37.558 29.6387 37.3865Z" fill="white"/>
<path d="M61 38.2205C61 36.3688 59.6696 34.8162 57.8948 34.4264C58.315 33.8098 58.5605 33.0701 58.5605 32.2752C58.5605 30.1306 56.7766 28.3858 54.5837 28.3858H44.1512L45.516 24.4232C46.0667 22.824 45.9351 21.117 45.1455 19.6166C44.3558 18.1164 43.0118 17.0198 41.3612 16.5289L39.7164 16.04C39.2384 15.8977 38.7317 16.1466 38.5621 16.6052L35.9775 23.5915C35.2439 25.5743 33.7972 27.2216 31.9039 28.2298L29.322 29.605C28.7666 28.8663 27.8724 28.3859 26.8652 28.3859H13.9375C13.4198 28.3859 13 28.7965 13 29.3028V53.083C13 53.5893 13.4198 53.9999 13.9375 53.9999H26.8652C27.9868 53.9999 28.9681 53.404 29.4974 52.5194L30.8207 53.027C32.5042 53.6727 34.2747 54 36.0828 54H52.4642C54.6571 54 56.441 52.2552 56.441 50.1106C56.441 49.3093 56.1918 48.564 55.7656 47.9445C57.5067 47.5307 58.8036 45.9938 58.8036 44.1655C58.8036 43.3484 58.5441 42.5898 58.1023 41.9632C59.7722 41.502 61 39.9993 61 38.2205ZM57.0232 40.2761H47.3806C46.8629 40.2761 46.4431 40.6867 46.4431 41.193C46.4431 41.6993 46.8629 42.1099 47.3806 42.1099H54.8268C55.9858 42.1099 56.9286 43.032 56.9286 44.1655C56.9286 45.299 55.9858 46.2211 54.8268 46.2211H47.3807C46.863 46.2211 46.4432 46.6317 46.4432 47.138C46.4432 47.6443 46.863 48.0549 47.3807 48.0549H52.4642C53.6232 48.0549 54.566 48.9771 54.566 50.1106C54.566 51.244 53.6232 52.1662 52.4642 52.1662H36.0828C34.5099 52.1662 32.9698 51.8814 31.5052 51.3197L29.9134 50.7091V41.7134C29.9134 41.2071 29.4936 40.7965 28.9759 40.7965C28.4583 40.7965 28.0384 41.2071 28.0384 41.7134V51.0186C28.0384 51.6512 27.5122 52.166 26.8652 52.166H14.875V30.2196H26.8652C27.5121 30.2196 28.0384 30.7342 28.0384 31.367V34.4804C28.0384 34.9867 28.4583 35.3973 28.9759 35.3973C29.4936 35.3973 29.9134 34.9867 29.9134 34.4804V31.378L32.8007 29.8403C35.0967 28.6176 36.851 26.62 37.7406 24.2154L40.0225 18.0475L40.8158 18.2834C41.9773 18.6288 42.9228 19.4002 43.4784 20.4559C44.0341 21.5115 44.1266 22.7125 43.7391 23.8376L41.9579 29.0098C41.8615 29.2897 41.9088 29.5976 42.0848 29.8374C42.261 30.0772 42.5444 30.2194 42.8462 30.2194H54.5837C55.7427 30.2194 56.6855 31.1415 56.6855 32.275C56.6855 33.4085 55.7427 34.3306 54.5837 34.3306H47.3806C46.8629 34.3306 46.4431 34.7412 46.4431 35.2476C46.4431 35.7539 46.8629 36.1645 47.3806 36.1645H50.5158L50.5213 36.1647H57.0232C58.1822 36.1647 59.125 37.0869 59.125 38.2204C59.125 39.354 58.1822 40.2761 57.0232 40.2761Z" fill="white"/>
<path d="M23.235 45.1546C21.787 45.1546 20.6089 46.3067 20.6089 47.7228C20.6089 49.139 21.7869 50.2912 23.235 50.2912C24.683 50.2912 25.861 49.1391 25.861 47.7228C25.861 46.3068 24.6829 45.1546 23.235 45.1546ZM23.235 48.4574C22.8209 48.4574 22.4839 48.1278 22.4839 47.7228C22.4839 47.3178 22.8209 46.9884 23.235 46.9884C23.6491 46.9884 23.986 47.3178 23.986 47.7228C23.986 48.1278 23.6491 48.4574 23.235 48.4574Z" fill="white"/>
</svg>
