<svg width="76" height="95" viewBox="0 0 76 95" fill="none" xmlns="http://www.w3.org/2000/svg">
<circle cx="38" cy="38" r="38" fill="#84AF5A"/>
<line x1="38" y1="69" x2="38" y2="95" stroke="white" stroke-width="2"/>
<path d="M61.6595 16.4404C61.4438 16.2613 61.1596 16.1878 60.8848 16.2404L46.6338 18.964L29.5442 16.0133C29.4919 16.0043 29.4391 16.0004 29.3862 16.0003C29.3842 16.0003 29.3822 16 29.3801 16L29.3787 16.0001C29.3562 16.0003 29.3338 16.0018 29.3113 16.0035C29.2649 16.0069 29.2195 16.0133 29.1752 16.0231L14.7544 18.9324C14.3156 19.0209 14 19.4078 14 19.857V58.8968C14 59.1763 14.1235 59.4414 14.3373 59.6206C14.5512 59.7998 14.833 59.8746 15.107 59.8248L29.3944 57.2276L46.4932 59.9881C46.5039 59.9898 46.5147 59.9907 46.5254 59.992C46.5357 59.9933 46.5459 59.9947 46.5563 59.9957C46.585 59.9983 46.6137 60 46.6424 60H46.6435C46.6735 60 46.7033 59.9984 46.7332 59.9955C46.7479 59.9941 46.7623 59.9914 46.7769 59.9894C46.7898 59.9875 46.8029 59.9864 46.8159 59.9839L46.8294 59.9814L46.8329 59.9807L61.2342 57.2619C61.6782 57.178 61.9999 56.7886 61.9999 56.3349V17.167C62 16.886 61.8751 16.6196 61.6595 16.4404ZM60.121 55.5525L47.5818 57.9198V50.5479C47.5818 50.0269 47.1611 49.6047 46.6423 49.6047C46.1235 49.6047 45.7029 50.027 45.7029 50.5479V57.95L30.3196 55.4665V28.7967C30.3196 28.2758 29.8989 27.8536 29.3802 27.8536C28.8614 27.8536 28.4407 28.2759 28.4407 28.7967V55.4841L15.8791 57.7676V20.6295L28.4407 18.0954V22.666C28.4407 23.1869 28.8614 23.6091 29.3802 23.6091C29.8989 23.6091 30.3196 23.1868 30.3196 22.666V18.0612L45.7029 20.7174V44.7002C45.7029 45.2212 46.1236 45.6434 46.6423 45.6434C47.1612 45.6434 47.5818 45.2211 47.5818 44.7002V20.7032L60.121 18.3068V55.5525Z" fill="white"/>
<path d="M38.432 29.1763L39.6467 27.9568C40.0136 27.5886 40.0136 26.9913 39.6467 26.6229C39.2798 26.2547 38.685 26.2547 38.318 26.6229L37.1033 27.8424L35.8886 26.6229C35.5216 26.2547 34.9269 26.2547 34.5598 26.6229C34.193 26.9912 34.193 27.5885 34.5598 27.9568L35.7746 29.1763L34.5598 30.3958C34.193 30.7641 34.193 31.3613 34.5598 31.7297C34.7433 31.9139 34.9838 32.0059 35.2242 32.0059C35.4645 32.0059 35.705 31.9139 35.8885 31.7297L37.1032 30.5102L38.3181 31.7297C38.5016 31.9139 38.742 32.0059 38.9824 32.0059C39.2229 32.0059 39.4633 31.9139 39.6467 31.7297C40.0136 31.3614 40.0136 30.7642 39.6467 30.3958L38.432 29.1763Z" fill="white"/>
<path d="M56.82 47.058L58.0348 45.8386C58.4016 45.4703 58.4016 44.873 58.0348 44.5047C57.6678 44.1364 57.0731 44.1364 56.706 44.5047L55.4913 45.7241L54.2766 44.5047C53.9097 44.1364 53.3149 44.1364 52.9479 44.5047C52.581 44.8729 52.581 45.4702 52.9479 45.8386L54.1626 47.058L52.9479 48.2775C52.5811 48.6459 52.5811 49.2431 52.9481 49.6114C53.1315 49.7956 53.372 49.8876 53.6124 49.8876C53.8528 49.8876 54.0932 49.7956 54.2767 49.6114L55.4914 48.3919L56.7061 49.6114C56.8896 49.7956 57.1301 49.8876 57.3704 49.8876C57.6108 49.8876 57.8513 49.7956 58.0348 49.6114C58.4016 49.2431 58.4016 48.6459 58.0348 48.2775L56.82 47.058Z" fill="white"/>
<path d="M23.5099 47.0581L24.7246 45.8387C25.0916 45.4704 25.0916 44.8731 24.7246 44.5048C24.3577 44.1366 23.7629 44.1366 23.3959 44.5048L22.1812 45.7243L20.9665 44.5048C20.5995 44.1366 20.0048 44.1366 19.6378 44.5048C19.2709 44.8731 19.2709 45.4704 19.6378 45.8388L20.8525 47.0582L19.6379 48.2776C19.2711 48.6459 19.2711 49.2431 19.6379 49.6115C19.8214 49.7957 20.0619 49.8877 20.3022 49.8877C20.5426 49.8877 20.7831 49.7957 20.9666 49.6115L22.1813 48.392L23.396 49.6115C23.5795 49.7957 23.8199 49.8877 24.0603 49.8877C24.3008 49.8877 24.5412 49.7957 24.7246 49.6115C25.0915 49.2432 25.0915 48.646 24.7246 48.2776L23.5099 47.0581Z" fill="white"/>
<path d="M37.0772 33.405C36.5584 33.405 36.1378 33.8273 36.1378 34.3481V34.3953C36.1378 34.9162 36.5584 35.3384 37.0772 35.3384C37.596 35.3384 38.0167 34.9161 38.0167 34.3953V34.3481C38.0167 33.8273 37.5959 33.405 37.0772 33.405Z" fill="white"/>
<path d="M40.5306 44.1927C40.5119 44.1735 40.4932 44.154 40.4748 44.1346C40.117 43.7574 39.5223 43.7427 39.1466 44.1019C38.7708 44.4612 38.7562 45.0582 39.1139 45.4354C39.1376 45.4602 39.1612 45.4848 39.1851 45.5094C39.3692 45.6991 39.6135 45.7942 39.8579 45.7942C40.0943 45.7942 40.331 45.7052 40.5136 45.5265C40.8851 45.1629 40.8927 44.5657 40.5306 44.1927Z" fill="white"/>
<path d="M46.8106 46.5242L46.7226 46.5154C46.2078 46.4621 45.7455 46.8402 45.693 47.3585C45.6406 47.8768 46.0166 48.3395 46.5328 48.392L46.6269 48.4015C46.6582 48.4046 46.689 48.406 46.7198 48.406C47.1973 48.406 47.6061 48.042 47.6536 47.555C47.7045 47.0366 47.3269 46.575 46.8106 46.5242Z" fill="white"/>
<path d="M43.342 45.8501L43.2615 45.8231C42.77 45.6566 42.2368 45.9215 42.0709 46.415C41.9049 46.9085 42.1689 47.4436 42.6605 47.6103L42.7536 47.6416C42.8513 47.6739 42.9504 47.6893 43.048 47.6893C43.4425 47.6893 43.8098 47.4377 43.94 47.0411C44.1026 46.5465 43.8348 46.0132 43.342 45.8501Z" fill="white"/>
<path d="M38.927 41.3271L38.903 41.2495C38.7522 40.7512 38.2272 40.4699 37.7308 40.6216C37.2343 40.773 36.9542 41.3 37.1052 41.7984C37.1151 41.8313 37.1252 41.8638 37.1354 41.8963C37.2622 42.2983 37.6321 42.5551 38.0308 42.5551C38.1248 42.5551 38.2203 42.5409 38.3145 42.511C38.8093 42.3537 39.0835 41.8237 38.927 41.3271Z" fill="white"/>
<path d="M38.2714 37.8234L38.2626 37.735C38.2112 37.2167 37.7508 36.838 37.2347 36.89C36.7183 36.9415 36.3415 37.4037 36.3928 37.9219L36.4024 38.0164C36.4521 38.5017 36.8601 38.8631 37.3359 38.8631C37.3679 38.8631 37.4003 38.8614 37.433 38.8581C37.9491 38.8049 38.3245 38.3416 38.2714 37.8234Z" fill="white"/>
<path d="M50.4493 46.6808H50.4051H50.4023C49.8847 46.6808 49.4645 47.1013 49.4629 47.6212C49.4614 48.1421 49.8808 48.5655 50.3997 48.5671H50.4493C50.9682 48.5671 51.3888 48.1448 51.3888 47.624C51.3888 47.1031 50.9682 46.6808 50.4493 46.6808Z" fill="white"/>
<path d="M29.3921 24.7411H29.3733C28.8545 24.7411 28.4338 25.1634 28.4338 25.6842C28.4338 26.2051 28.8546 26.6274 29.3733 26.6274H29.3921C29.9109 26.6274 30.3315 26.2051 30.3315 25.6842C30.3315 25.1634 29.9109 24.7411 29.3921 24.7411Z" fill="white"/>
</svg>
