<svg width="80" height="80" viewBox="0 0 80 80" fill="none" xmlns="http://www.w3.org/2000/svg">
<circle cx="40" cy="40" r="40" fill="#84AF5A"/>
<path d="M59.3125 36.2C58.795 36.2 58.375 36.6256 58.375 37.15C58.375 37.6744 58.795 38.1 59.3125 38.1C59.83 38.1 60.25 37.6744 60.25 37.15C60.25 36.6256 59.83 36.2 59.3125 36.2Z" fill="white"/>
<path d="M20.6875 36.2C20.17 36.2 19.75 36.6256 19.75 37.15C19.75 37.6744 20.17 38.1 20.6875 38.1C21.205 38.1 21.625 37.6744 21.625 37.15C21.625 36.6256 21.205 36.2 20.6875 36.2Z" fill="white"/>
<path d="M61.1875 21H37.6834C36.9212 21 36.1811 21.3199 35.6528 21.8779L31.3706 26.4063C31.1933 26.5929 30.9462 26.7 30.6925 26.7H29.6875V23.85C29.6875 23.3253 29.2678 22.9 28.75 22.9H20.6875C20.1697 22.9 19.75 23.3253 19.75 23.85V26.7C17.6823 26.7 16 28.4047 16 30.5V55.2C16 57.2953 17.6823 59 19.75 59H60.25C62.3177 59 64 57.2953 64 55.2V23.85C64 22.2785 62.7383 21 61.1875 21ZM21.625 24.8H27.8125V26.7H21.625V24.8ZM17.875 34.3H31.2086C29.052 36.5793 27.8125 39.6355 27.8125 42.85C27.8125 46.0645 29.052 49.1208 31.2086 51.4H17.875V34.3ZM34.1184 34.2656C35.8488 33.0451 37.8826 32.4 40 32.4C42.1174 32.4 44.1512 33.0451 45.8816 34.2656L45.8818 34.2657C48.6561 36.2218 50.3125 39.4308 50.3125 42.85C50.3125 46.2692 48.6561 49.4782 45.8816 51.4344C44.1512 52.6549 42.1174 53.3 40 53.3C37.8826 53.3 35.8488 52.6549 34.1182 51.4343C31.3438 49.4782 29.6875 46.2691 29.6875 42.85C29.6875 39.4309 31.3438 36.2218 34.1184 34.2656ZM62.125 55.2C62.125 56.2477 61.2839 57.1 60.25 57.1H19.75C18.7161 57.1 17.875 56.2477 17.875 55.2V53.3H33.49C33.4947 53.3 33.4991 53.2993 33.5038 53.2993C35.4473 54.5437 37.6813 55.2 40 55.2C42.3188 55.2 44.5528 54.5437 46.4962 53.2993C46.5009 53.2994 46.5054 53.3 46.5101 53.3H62.125V55.2ZM62.125 51.4H48.7914C50.948 49.1207 52.1875 46.0644 52.1875 42.85C52.1875 39.6355 50.948 36.5792 48.7914 34.3H62.125V51.4ZM62.125 32.4H46.51C46.5053 32.4 46.5008 32.4007 46.4962 32.4007C44.5527 31.1563 42.3187 30.5 40 30.5C37.6813 30.5 35.4472 31.1563 33.5038 32.4007C33.4992 32.4006 33.4947 32.4 33.49 32.4H17.875V30.5C17.875 29.4523 18.7161 28.6 19.75 28.6H30.6925C31.4534 28.6 32.1931 28.2805 32.7231 27.7221L37.0062 23.1929C37.1823 23.0068 37.4292 22.9 37.6834 22.9H61.1875C61.7044 22.9 62.125 23.3262 62.125 23.85V32.4Z" fill="white"/>
<path d="M59.3125 24.8H51.25C50.7323 24.8 50.3125 25.2253 50.3125 25.75V29.55C50.3125 30.0747 50.7323 30.5 51.25 30.5H59.3125C59.8302 30.5 60.25 30.0747 60.25 29.55V25.75C60.25 25.2253 59.8302 24.8 59.3125 24.8ZM58.375 28.6H52.1875V26.7H58.375V28.6Z" fill="white"/>
<path d="M59.3125 40C58.7948 40 58.375 40.4253 58.375 40.95V48.55C58.375 49.0747 58.7948 49.5 59.3125 49.5C59.8302 49.5 60.25 49.0747 60.25 48.55V40.95C60.25 40.4253 59.8302 40 59.3125 40Z" fill="white"/>
<path d="M20.6875 40C20.1697 40 19.75 40.4253 19.75 40.95V48.55C19.75 49.0747 20.1697 49.5 20.6875 49.5C21.2053 49.5 21.625 49.0747 21.625 48.55V40.95C21.625 40.4253 21.2053 40 20.6875 40Z" fill="white"/>
<path d="M40 36.2C36.3814 36.2 33.4375 39.1832 33.4375 42.85C33.4375 46.5168 36.3814 49.5 40 49.5C43.6186 49.5 46.5625 46.5168 46.5625 42.85C46.5625 39.1832 43.6186 36.2 40 36.2ZM40 47.6C37.4153 47.6 35.3125 45.4692 35.3125 42.85C35.3125 40.2309 37.4153 38.1 40 38.1C42.5847 38.1 44.6875 40.2309 44.6875 42.85C44.6875 45.4692 42.5847 47.6 40 47.6Z" fill="white"/>
</svg>
