<svg width="80" height="80" viewBox="0 0 80 80" fill="none" xmlns="http://www.w3.org/2000/svg">
<circle cx="40" cy="40" r="40" fill="#84AF5A"/>
<path d="M42.0699 38.5215C41.883 38.6416 41.2501 38.7788 40.7218 38.8125H37.1875C36.6697 38.8125 36.25 39.2323 36.25 39.75C36.25 40.2677 36.6697 40.6875 37.1875 40.6875H40.75C40.7673 40.6875 40.7847 40.687 40.802 40.686C41.607 40.6413 43.0398 40.4426 43.5925 39.6139C44.2282 38.6604 42.7872 37.5885 42.0699 38.5215Z" fill="white"/>
<path d="M42.2969 21.5625H33.8594C33.3428 21.5625 32.9219 21.9834 32.9219 22.5C32.9219 23.0166 33.3428 23.4375 33.8594 23.4375H42.2969C42.8134 23.4375 43.2344 23.0166 43.2344 22.5C43.2344 21.9834 42.8133 21.5625 42.2969 21.5625Z" fill="white"/>
<path d="M46.0469 21.5625C45.5303 21.5625 45.1094 21.9834 45.1094 22.5C45.1094 23.0166 45.5303 23.4375 46.0469 23.4375C46.5634 23.4375 46.9844 23.0166 46.9844 22.5C46.9844 21.9834 46.5633 21.5625 46.0469 21.5625Z" fill="white"/>
<path d="M60.7416 47.1158L63.675 44.5848C64.0231 44.2844 64.102 43.776 63.8612 43.3842L59.83 36.8217C59.6798 36.5772 59.4258 36.4149 59.1408 36.3814C58.8566 36.348 58.5713 36.4466 58.3683 36.6495L52.1966 42.8212C52.1635 42.8107 52.1305 42.801 52.0975 42.7907C52.096 42.7902 52.0945 42.7898 52.0918 42.7889C50.7615 42.3725 49.445 42.0581 48.2008 41.8618C49.7823 39.9311 50.8523 37.444 51.1593 34.6875H53.1249V36.5625C53.1249 37.0802 53.5447 37.5 54.0624 37.5C54.5801 37.5 54.9999 37.0802 54.9999 36.5625V26.25C54.9999 25.7323 54.5801 25.3125 54.0624 25.3125H52.6118C52.0741 19.5463 46.6234 15 40 15C33.3766 15 27.9258 19.5463 27.388 25.3125H25.9375C25.4197 25.3125 25 25.7323 25 26.25V36.5625C25 37.0802 25.4197 37.5 25.9375 37.5C26.4553 37.5 26.875 37.0802 26.875 36.5625V34.6875H28.8407C29.1475 37.4437 30.2172 39.9304 31.7984 41.861C29.3486 42.2473 26.6162 43.0935 24.0583 44.2716C24.0541 44.2735 24.0497 44.2754 24.0448 44.2777C21.7868 45.3188 19.514 46.6231 17.781 48.4325C16.8478 49.4066 16 50.6478 16 52.0485V62.0625C16 62.5802 16.4197 63 16.9375 63H63.0624C63.5801 63 63.9999 62.5802 63.9999 62.0625V52.0485C63.9999 50.1683 62.451 48.4451 60.7416 47.1158ZM23.5 61.125H17.875V52.0485C17.875 51.2142 18.557 50.1895 19.75 49.1351C19.75 49.1351 19.75 52.5903 19.75 52.5938C19.75 53.2197 20.4011 53.692 21.0038 53.4764L23.5 52.5818V61.125ZM23.5 50.5901L21.625 51.262C21.625 51.262 21.625 47.73 21.625 47.7282C21.625 47.6393 22.2092 47.3685 22.28 47.3269C22.6838 47.0895 23.0856 46.8533 23.5 46.6356V50.5901ZM58.8542 38.8153L61.8462 43.6862L60.1816 45.1225L57.1419 40.5277L58.8542 38.8153ZM55.7888 41.8807L58.0976 45.3709C56.8336 44.6536 55.5099 44.0411 54.1562 43.5134L55.7888 41.8807ZM58.3749 47.7282V51.2619L56.4999 50.59V46.6356C57.1403 46.9723 57.7682 47.3339 58.3749 47.7282ZM49 43.9189C49.6123 44.0476 50.2404 44.2051 50.875 44.3872V48.5744L49 47.9025V43.9189ZM53.1249 32.8125H51.2499V30.9375H53.1249V32.8125ZM40 16.875C45.5808 16.875 50.1849 20.5818 50.7278 25.3125H29.2722C29.815 20.5818 34.4191 16.875 40 16.875ZM28.75 32.8125H26.875V30.9375H28.75V32.8125ZM26.875 29.0625V27.1875H53.125V29.0625H26.875ZM30.625 33.0469V30.9375H49.375V33.0469C49.375 39.1209 45.1694 44.0625 40 44.0625C34.8306 44.0625 30.625 39.1209 30.625 33.0469ZM29.125 44.3874C29.7596 44.2054 30.3877 44.0479 31 43.9192V47.9026L29.125 48.5745V44.3874ZM29.125 50.5662L32.2537 49.4451C32.6264 49.3115 32.8749 48.9584 32.8749 48.5625V43.6078C33.0802 43.5837 33.2829 43.5629 33.4813 43.547C35.3217 45.0514 37.5721 45.9375 40 45.9375C42.4281 45.9375 44.6789 45.0511 46.5193 43.5464C46.7175 43.5623 46.9199 43.5832 47.125 43.6073V48.5625C47.125 48.9584 47.3736 49.3115 47.7463 49.4451L50.875 50.5662V52.2188H29.125V50.5662ZM33.8125 61.125H29.125V57.8438H33.8125V61.125ZM50.7812 61.125H46.0938V57.8438H50.7812V61.125ZM54.6249 61.125H52.6562V56.9062C52.6562 56.3886 52.2363 55.9688 51.7187 55.9688H45.1562C44.6385 55.9688 44.2187 56.3886 44.2187 56.9062V61.125H35.6874V56.9062C35.6874 56.3886 35.2677 55.9688 34.7499 55.9688H28.1874C27.6696 55.9688 27.2499 56.3886 27.2499 56.9062V61.125H25.3749C25.3749 61.125 25.3749 45.7399 25.3749 45.7369C25.3789 45.6606 27.2499 45.0514 27.2499 44.9927C27.2499 44.9934 27.2499 53.1562 27.2499 53.1562C27.2499 53.6739 27.6696 54.0938 28.1874 54.0938H51.8124C52.3301 54.0938 52.7499 53.6739 52.7499 53.1562V44.9926C52.7499 45.0371 54.2945 45.5933 54.6249 45.7371V61.125ZM62.1249 61.125H56.4999V52.5818C56.4999 52.5818 58.9936 53.4754 58.9962 53.4763C59.2675 53.5735 59.6054 53.5341 59.852 53.3603C60.1015 53.1848 60.2499 52.8988 60.2499 52.5938V49.135C61.4429 50.1894 62.1249 51.2141 62.1249 52.0484V61.125Z" fill="white"/>
</svg>
