<svg width="80" height="80" viewBox="0 0 80 80" fill="none" xmlns="http://www.w3.org/2000/svg">
<circle cx="40" cy="40" r="40" fill="#84AF5A"/>
<path d="M40.5621 23.8096C40.0446 23.8096 39.6246 24.2362 39.6246 24.762C39.6246 25.2877 40.0446 25.7144 40.5621 25.7144C41.0796 25.7144 41.4996 25.2877 41.4996 24.762C41.4996 24.2362 41.0796 23.8096 40.5621 23.8096Z" fill="white"/>
<path d="M63.9421 41.5797C63.8146 40.7419 63.4711 39.9566 62.9399 39.2969L58.4184 33.6826C58.4154 33.6789 58.412 33.6757 58.4089 33.6721L55.9127 30.5725C55.3766 29.906 54.583 29.5237 53.7356 29.5237H47.1245V22.8572C47.1245 21.2817 45.8628 20 44.312 20H18.8125C17.2617 20 16 21.2817 16 22.8572V53.3334C16 53.8593 16.4197 54.2857 16.9375 54.2857H21.6249C21.6249 57.4366 24.1483 60 27.2498 60C30.3513 60 32.8747 57.4365 32.8747 54.2857C36.1425 54.2857 45.2085 54.2857 48.9995 54.2857C48.9995 57.4366 51.5229 60 54.6244 60C57.726 60 60.2493 57.4365 60.2493 54.2857H61.1868C62.7376 54.2857 63.9993 53.004 63.9993 51.4286C63.9958 41.8184 64.0076 42.3186 63.9902 42.0303C64.0095 41.8825 63.9982 41.7364 63.9421 41.5797ZM61.7835 40.9524H50.8745V35.2382H57.2486L61.4886 40.503C61.6019 40.6436 61.6994 40.7945 61.7835 40.9524ZM27.2498 58.0952C25.1821 58.0952 23.4999 56.3862 23.4999 54.2857C23.4999 52.1565 25.2126 50.4763 27.2498 50.4763C29.288 50.4763 30.9997 52.1576 30.9997 54.2857C30.9998 56.3862 29.3176 58.0952 27.2498 58.0952ZM32.5528 52.381C31.7699 50.1335 29.6508 48.5715 27.2498 48.5715C24.8477 48.5715 22.728 50.1347 21.9465 52.381H17.875V22.8572C17.875 22.332 18.2956 21.9048 18.8125 21.9048H44.3121C44.8291 21.9048 45.2496 22.332 45.2496 22.8572V52.381H32.5528ZM54.6244 58.0952C52.5567 58.0952 50.8745 56.3862 50.8745 54.2857C50.8745 52.1565 52.5872 50.4763 54.6244 50.4763C56.6626 50.4763 58.3743 52.1576 58.3743 54.2857C58.3744 56.3862 56.6922 58.0952 54.6244 58.0952ZM61.1868 52.381H59.9273C59.1445 50.1335 57.0255 48.5715 54.6244 48.5715C52.2224 48.5715 50.1026 50.1347 49.3211 52.381H47.1245V31.4286H53.7357C54.0181 31.4286 54.2824 31.5559 54.4613 31.7783L55.7137 33.3334H49.937C49.4192 33.3334 48.9995 33.7599 48.9995 34.2858V41.9048C48.9995 42.4307 49.4192 42.8572 49.937 42.8572H62.1243V44.762H59.3118C58.7941 44.762 58.3743 45.1885 58.3743 45.7144C58.3743 46.2403 58.7941 46.6668 59.3118 46.6668H62.1243V51.4287C62.1243 51.9536 61.7038 52.381 61.1868 52.381Z" fill="white"/>
<path d="M27.2498 52.381C26.2159 52.381 25.3748 53.2354 25.3748 54.2857C25.3748 55.336 26.2159 56.1905 27.2498 56.1905C28.2837 56.1905 29.1248 55.336 29.1248 54.2857C29.1248 53.2354 28.2837 52.381 27.2498 52.381Z" fill="white"/>
<path d="M54.6244 52.381C53.5906 52.381 52.7494 53.2354 52.7494 54.2857C52.7494 55.336 53.5906 56.1905 54.6244 56.1905C55.6583 56.1905 56.4994 55.336 56.4994 54.2857C56.4994 53.2354 55.6583 52.381 54.6244 52.381Z" fill="white"/>
<path d="M36.8122 23.8096H24.4374C23.9196 23.8096 23.4999 24.2361 23.4999 24.762C23.4999 25.2879 23.9196 25.7144 24.4374 25.7144H36.8122C37.33 25.7144 37.7497 25.2879 37.7497 24.762C37.7497 24.2361 37.33 23.8096 36.8122 23.8096Z" fill="white"/>
</svg>
