<svg width="80" height="80" viewBox="0 0 80 80" fill="none" xmlns="http://www.w3.org/2000/svg">
<circle cx="40" cy="40" r="40" fill="#84AF5A"/>
<path d="M46.0891 34.731C43.9172 33.7003 41.5938 33.1777 39.1833 33.1777C38.6655 33.1777 38.2458 33.5975 38.2458 34.1152C38.2458 34.6329 38.6656 35.0526 39.1834 35.0526C41.3137 35.0526 43.3666 35.5143 45.2853 36.4248C45.415 36.4864 45.5518 36.5156 45.6865 36.5156C46.0374 36.5156 46.3737 36.3179 46.5341 35.9798C46.7561 35.5121 46.5569 34.953 46.0891 34.731Z" fill="white"/>
<path d="M33.3453 34.2768C28.1285 36.3229 24.3192 41.021 23.404 46.5374C23.3192 47.0483 23.6646 47.531 24.1754 47.6157C24.2275 47.6243 24.279 47.6286 24.33 47.6286C24.7803 47.6286 25.1776 47.3031 25.2538 46.8443C26.0614 41.9754 29.4243 37.8287 34.03 36.0223C34.512 35.8332 34.7495 35.2893 34.5604 34.8072C34.3713 34.3252 33.8273 34.0879 33.3453 34.2768Z" fill="white"/>
<path d="M63.0625 49.5385H61.2946C61.1053 44.1563 58.8918 39.1158 55.0102 35.2744C52.1016 32.3959 48.5184 30.4464 44.6263 29.576C44.5984 27.0482 42.5344 25 40.0001 25C37.4759 25 35.4186 27.0318 35.3747 29.5457C31.4395 30.4003 27.8251 32.3624 24.9095 35.2779C21.0773 39.1101 18.8919 44.1496 18.7053 49.5385H16.9375C16.4197 49.5385 16 49.9583 16 50.476C16 50.9937 16.4197 51.4135 16.9375 51.4135H63.0625C63.5803 51.4135 64 50.9937 64 50.476C64 49.9583 63.5803 49.5385 63.0625 49.5385ZM40 26.875C41.3867 26.875 42.5366 27.906 42.7248 29.2416C41.8027 29.1214 40.8675 29.059 39.923 29.059C39.0316 29.059 38.1485 29.1137 37.2776 29.2213C37.4747 27.8955 38.6203 26.875 40 26.875ZM20.5817 49.5385C20.9788 39.2125 29.5016 30.934 39.9231 30.934C50.4273 30.934 59.0179 39.2125 59.4183 49.5385H20.5817Z" fill="white"/>
</svg>
