<svg width="76" height="95" viewBox="0 0 76 95" fill="none" xmlns="http://www.w3.org/2000/svg">
<circle cx="38" cy="38" r="38" fill="#84AF5A"/>
<line x1="38" y1="69" x2="38" y2="95" stroke="white" stroke-width="2"/>
<path d="M30.5 23.9375C29.9825 23.9375 29.5625 24.3575 29.5625 24.875C29.5625 25.3925 29.9825 25.8125 30.5 25.8125C31.0175 25.8125 31.4375 25.3925 31.4375 24.875C31.4375 24.3575 31.0175 23.9375 30.5 23.9375Z" fill="white"/>
<path d="M61.0625 37.0625H57.946C57.7121 32.15 55.6439 27.5201 52.0619 23.9381C48.4799 20.3561 43.85 18.2879 38.9375 18.054V14.9375C38.9375 14.4197 38.5178 14 38 14C37.4822 14 37.0625 14.4197 37.0625 14.9375V18.054C32.15 18.2879 27.5201 20.3561 23.9381 23.9381C20.3561 27.5201 18.2879 32.15 18.054 37.0625H14.9375C14.4197 37.0625 14 37.4822 14 38C14 38.5178 14.4197 38.9375 14.9375 38.9375H18.054C18.2879 43.85 20.3561 48.4799 23.9381 52.0619C27.5201 55.6439 32.15 57.7121 37.0625 57.946V61.0625C37.0625 61.5803 37.4822 62 38 62C38.5178 62 38.9375 61.5803 38.9375 61.0625V57.946C43.85 57.7121 48.4799 55.6439 52.0619 52.0619C55.6439 48.4799 57.7121 43.85 57.946 38.9375H61.0625C61.5803 38.9375 62 38.5178 62 38C62 37.4822 61.5803 37.0625 61.0625 37.0625ZM37.0625 56.0682C27.9808 55.5778 20.4222 48.0192 19.9318 38.9375H22.0908C22.5598 46.9804 29.0196 53.4403 37.0625 53.9092V56.0682ZM38 48.3125C37.4822 48.3125 37.0625 48.7322 37.0625 49.25V52.0305C30.0539 51.5668 24.4332 45.9462 23.9695 38.9375H26.75C27.2678 38.9375 27.6875 38.5178 27.6875 38C27.6875 37.4822 27.2678 37.0625 26.75 37.0625H23.9691C24.1915 33.6789 25.6143 30.5215 28.0335 28.0888C28.3986 27.7217 28.3969 27.1281 28.0298 26.763C27.6626 26.398 27.069 26.3996 26.704 26.7668C23.9329 29.5533 22.3155 33.1798 22.0907 37.0625H19.9318C20.4222 27.9808 27.9808 20.4222 37.0625 19.9318V22.0913C35.99 22.154 34.9284 22.323 33.8957 22.5987C33.3955 22.7322 33.0982 23.2459 33.2317 23.7462C33.3652 24.2464 33.8789 24.5437 34.3792 24.4102C35.2543 24.1767 36.1535 24.0291 37.0625 23.9688V26.75C37.0625 27.2678 37.4822 27.6875 38 27.6875C38.5178 27.6875 38.9375 27.2678 38.9375 26.75V23.9695C45.9461 24.4332 51.5668 30.0538 52.0305 37.0625H49.25C48.7322 37.0625 48.3125 37.4822 48.3125 38C48.3125 38.5178 48.7322 38.9375 49.25 38.9375H52.0305C51.5668 45.9461 45.9462 51.5668 38.9375 52.0305V49.25C38.9375 48.7322 38.5178 48.3125 38 48.3125ZM38.9375 56.0682V53.9092C46.9804 53.4403 53.4403 46.9804 53.9092 38.9375H56.0682C55.5778 48.0192 48.0192 55.5778 38.9375 56.0682ZM53.9092 37.0625C53.4403 29.0196 46.9804 22.5598 38.9375 22.0908V19.9318C48.0192 20.4222 55.5778 27.9808 56.0682 37.0625H53.9092Z" fill="white"/>
<path d="M45.5 37.0625H44.4944C44.082 34.1929 41.807 31.918 38.9375 31.5056V30.5C38.9375 29.9822 38.5178 29.5625 38 29.5625C37.4822 29.5625 37.0625 29.9822 37.0625 30.5V31.5056C34.1929 31.918 31.918 34.193 31.5056 37.0625H30.5C29.9822 37.0625 29.5625 37.4822 29.5625 38C29.5625 38.5178 29.9822 38.9375 30.5 38.9375H31.5056C31.918 41.8071 34.193 44.082 37.0625 44.4944V45.5C37.0625 46.0178 37.4822 46.4375 38 46.4375C38.5178 46.4375 38.9375 46.0178 38.9375 45.5V44.4944C41.8071 44.082 44.082 41.807 44.4944 38.9375H45.5C46.0178 38.9375 46.4375 38.5178 46.4375 38C46.4375 37.4822 46.0178 37.0625 45.5 37.0625ZM37.0625 42.5932C35.2285 42.2194 33.7806 40.7715 33.4068 38.9375H37.0625V42.5932ZM37.0625 37.0625H33.4068C33.7806 35.2285 35.2285 33.7806 37.0625 33.4068V37.0625ZM38.9375 42.5932V38.9375H42.5932C42.2194 40.7715 40.7715 42.2194 38.9375 42.5932ZM38.9375 37.0625V33.4068C40.7715 33.7806 42.2194 35.2285 42.5932 37.0625H38.9375Z" fill="white"/>
</svg>
