<svg width="106" height="106" viewBox="0 0 106 106" fill="none" xmlns="http://www.w3.org/2000/svg">
<g filter="url(#filter0_d)">
<circle cx="53" cy="48" r="38" fill="#84AF5A"/>
</g>
<line x1="53" y1="79" x2="53" y2="105" stroke="white" stroke-width="2"/>
<path d="M76.6595 26.4404C76.4438 26.2613 76.1596 26.1878 75.8848 26.2404L61.6338 28.964L44.5442 26.0133C44.4919 26.0043 44.4391 26.0004 44.3862 26.0003C44.3842 26.0003 44.3822 26 44.3801 26L44.3787 26.0001C44.3562 26.0003 44.3338 26.0018 44.3113 26.0035C44.2649 26.0069 44.2195 26.0133 44.1752 26.0231L29.7544 28.9324C29.3156 29.0209 29 29.4078 29 29.857V68.8968C29 69.1763 29.1235 69.4414 29.3373 69.6206C29.5512 69.7998 29.833 69.8746 30.107 69.8248L44.3944 67.2276L61.4932 69.9881C61.5039 69.9898 61.5147 69.9907 61.5254 69.992C61.5357 69.9933 61.5459 69.9947 61.5563 69.9957C61.585 69.9983 61.6137 70 61.6424 70H61.6435C61.6735 70 61.7033 69.9984 61.7332 69.9955C61.7479 69.9941 61.7623 69.9914 61.7769 69.9894C61.7898 69.9875 61.8029 69.9864 61.8159 69.9839L61.8294 69.9814L61.8329 69.9807L76.2342 67.2619C76.6782 67.178 76.9999 66.7886 76.9999 66.3349V27.167C77 26.886 76.8751 26.6196 76.6595 26.4404ZM75.121 65.5525L62.5818 67.9198V60.5479C62.5818 60.0269 62.1611 59.6047 61.6423 59.6047C61.1235 59.6047 60.7029 60.027 60.7029 60.5479V67.95L45.3196 65.4665V38.7967C45.3196 38.2758 44.8989 37.8536 44.3802 37.8536C43.8614 37.8536 43.4407 38.2759 43.4407 38.7967V65.4841L30.8791 67.7676V30.6295L43.4407 28.0954V32.666C43.4407 33.1869 43.8614 33.6091 44.3802 33.6091C44.8989 33.6091 45.3196 33.1868 45.3196 32.666V28.0612L60.7029 30.7174V54.7002C60.7029 55.2212 61.1236 55.6434 61.6423 55.6434C62.1612 55.6434 62.5818 55.2211 62.5818 54.7002V30.7032L75.121 28.3068V65.5525Z" fill="white"/>
<path d="M53.432 39.1763L54.6467 37.9568C55.0136 37.5886 55.0136 36.9913 54.6467 36.6229C54.2798 36.2547 53.685 36.2547 53.318 36.6229L52.1033 37.8424L50.8886 36.6229C50.5216 36.2547 49.9269 36.2547 49.5598 36.6229C49.193 36.9912 49.193 37.5885 49.5598 37.9568L50.7746 39.1763L49.5598 40.3958C49.193 40.7641 49.193 41.3613 49.5598 41.7297C49.7433 41.9139 49.9838 42.0059 50.2242 42.0059C50.4645 42.0059 50.705 41.9139 50.8885 41.7297L52.1032 40.5102L53.3181 41.7297C53.5016 41.9139 53.742 42.0059 53.9824 42.0059C54.2229 42.0059 54.4633 41.9139 54.6467 41.7297C55.0136 41.3614 55.0136 40.7642 54.6467 40.3958L53.432 39.1763Z" fill="white"/>
<path d="M71.82 57.058L73.0348 55.8386C73.4016 55.4703 73.4016 54.873 73.0348 54.5047C72.6678 54.1364 72.0731 54.1364 71.706 54.5047L70.4913 55.7241L69.2766 54.5047C68.9097 54.1364 68.3149 54.1364 67.9479 54.5047C67.581 54.8729 67.581 55.4702 67.9479 55.8386L69.1626 57.058L67.9479 58.2775C67.5811 58.6459 67.5811 59.2431 67.9481 59.6114C68.1315 59.7956 68.372 59.8876 68.6124 59.8876C68.8528 59.8876 69.0932 59.7956 69.2767 59.6114L70.4914 58.3919L71.7061 59.6114C71.8896 59.7956 72.1301 59.8876 72.3704 59.8876C72.6108 59.8876 72.8513 59.7956 73.0348 59.6114C73.4016 59.2431 73.4016 58.6459 73.0348 58.2775L71.82 57.058Z" fill="white"/>
<path d="M38.5099 57.0581L39.7246 55.8387C40.0916 55.4704 40.0916 54.8731 39.7246 54.5048C39.3577 54.1366 38.7629 54.1366 38.3959 54.5048L37.1812 55.7243L35.9665 54.5048C35.5995 54.1366 35.0048 54.1366 34.6378 54.5048C34.2709 54.8731 34.2709 55.4704 34.6378 55.8388L35.8525 57.0582L34.6379 58.2776C34.2711 58.6459 34.2711 59.2431 34.6379 59.6115C34.8214 59.7957 35.0619 59.8877 35.3022 59.8877C35.5426 59.8877 35.7831 59.7957 35.9666 59.6115L37.1813 58.392L38.396 59.6115C38.5795 59.7957 38.8199 59.8877 39.0603 59.8877C39.3008 59.8877 39.5412 59.7957 39.7246 59.6115C40.0915 59.2432 40.0915 58.646 39.7246 58.2776L38.5099 57.0581Z" fill="white"/>
<path d="M52.0772 43.405C51.5584 43.405 51.1378 43.8273 51.1378 44.3481V44.3953C51.1378 44.9162 51.5584 45.3384 52.0772 45.3384C52.596 45.3384 53.0167 44.9161 53.0167 44.3953V44.3481C53.0167 43.8273 52.5959 43.405 52.0772 43.405Z" fill="white"/>
<path d="M55.5306 54.1927C55.5119 54.1735 55.4932 54.154 55.4748 54.1346C55.117 53.7574 54.5223 53.7427 54.1466 54.1019C53.7708 54.4612 53.7562 55.0582 54.1139 55.4354C54.1376 55.4602 54.1612 55.4848 54.1851 55.5094C54.3692 55.6991 54.6135 55.7942 54.8579 55.7942C55.0943 55.7942 55.331 55.7052 55.5136 55.5265C55.8851 55.1629 55.8927 54.5657 55.5306 54.1927Z" fill="white"/>
<path d="M61.8106 56.5242L61.7226 56.5154C61.2078 56.4621 60.7455 56.8402 60.693 57.3585C60.6406 57.8768 61.0166 58.3395 61.5328 58.392L61.6269 58.4015C61.6582 58.4046 61.689 58.406 61.7198 58.406C62.1973 58.406 62.6061 58.042 62.6536 57.555C62.7045 57.0366 62.3269 56.575 61.8106 56.5242Z" fill="white"/>
<path d="M58.342 55.8501L58.2615 55.8231C57.77 55.6566 57.2368 55.9215 57.0709 56.415C56.9049 56.9085 57.1689 57.4436 57.6605 57.6103L57.7536 57.6416C57.8513 57.6739 57.9504 57.6893 58.048 57.6893C58.4425 57.6893 58.8098 57.4377 58.94 57.0411C59.1026 56.5465 58.8348 56.0132 58.342 55.8501Z" fill="white"/>
<path d="M53.927 51.3271L53.903 51.2495C53.7522 50.7512 53.2272 50.4699 52.7308 50.6216C52.2343 50.773 51.9542 51.3 52.1052 51.7984C52.1151 51.8313 52.1252 51.8638 52.1354 51.8963C52.2622 52.2983 52.6321 52.5551 53.0308 52.5551C53.1248 52.5551 53.2203 52.5409 53.3145 52.511C53.8093 52.3537 54.0835 51.8237 53.927 51.3271Z" fill="white"/>
<path d="M53.2714 47.8234L53.2626 47.735C53.2112 47.2167 52.7508 46.838 52.2347 46.89C51.7183 46.9415 51.3415 47.4037 51.3928 47.9219L51.4024 48.0164C51.4521 48.5017 51.8601 48.8631 52.3359 48.8631C52.3679 48.8631 52.4003 48.8614 52.433 48.8581C52.9491 48.8049 53.3245 48.3416 53.2714 47.8234Z" fill="white"/>
<path d="M65.4493 56.6808H65.4051H65.4023C64.8847 56.6808 64.4645 57.1013 64.4629 57.6212C64.4614 58.1421 64.8808 58.5655 65.3997 58.5671H65.4493C65.9682 58.5671 66.3888 58.1448 66.3888 57.624C66.3888 57.1031 65.9682 56.6808 65.4493 56.6808Z" fill="white"/>
<path d="M44.3921 34.7411H44.3733C43.8545 34.7411 43.4338 35.1634 43.4338 35.6842C43.4338 36.2051 43.8546 36.6274 44.3733 36.6274H44.3921C44.9109 36.6274 45.3315 36.2051 45.3315 35.6842C45.3315 35.1634 44.9109 34.7411 44.3921 34.7411Z" fill="white"/>
<defs>
<filter id="filter0_d" x="0" y="0" width="106" height="106" filterUnits="userSpaceOnUse" color-interpolation-filters="sRGB">
<feFlood flood-opacity="0" result="BackgroundImageFix"/>
<feColorMatrix in="SourceAlpha" type="matrix" values="0 0 0 0 0 0 0 0 0 0 0 0 0 0 0 0 0 0 127 0"/>
<feOffset dy="5"/>
<feGaussianBlur stdDeviation="7.5"/>
<feColorMatrix type="matrix" values="0 0 0 0 0 0 0 0 0 0 0 0 0 0 0 0 0 0 0.07 0"/>
<feBlend mode="normal" in2="BackgroundImageFix" result="effect1_dropShadow"/>
<feBlend mode="normal" in="SourceGraphic" in2="effect1_dropShadow" result="shape"/>
</filter>
</defs>
</svg>
