<svg width="76" height="95" viewBox="0 0 76 95" fill="none" xmlns="http://www.w3.org/2000/svg">
<circle cx="38" cy="38" r="38" fill="#84AF5A"/>
<line x1="37" y1="69" x2="37" y2="95" stroke="white" stroke-width="2"/>
<path d="M29.3274 56.0935C28.8059 56.0935 28.3827 56.5135 28.3827 57.031C28.3827 57.5485 28.8059 57.9685 29.3274 57.9685C29.8489 57.9685 30.2721 57.5485 30.2721 57.031C30.2721 56.5135 29.8489 56.0935 29.3274 56.0935Z" fill="white"/>
<path d="M32.8438 32.0187C32.3159 31.4225 31.8148 30.7102 31.3546 29.9024C30.8977 29.0987 30.48 28.1966 30.1134 27.2213C29.7471 26.2459 29.4315 25.1938 29.1756 24.0946C29.0581 23.5902 28.5509 23.2758 28.0424 23.3923C27.5341 23.5089 27.2172 24.0124 27.3347 24.5169C27.609 25.6946 27.9483 26.8249 28.3431 27.8763C28.7442 28.9433 29.2037 29.935 29.7094 30.8243C30.2337 31.7448 30.8107 32.5631 31.4243 33.2561C31.6111 33.4672 31.8721 33.5749 32.1345 33.5749C32.3558 33.5749 32.5782 33.4981 32.7576 33.3417C33.1495 33 33.1882 32.4076 32.8438 32.0187Z" fill="white"/>
<path d="M57.7806 18.4257C57.2772 16.2728 55.9384 14.731 54.1074 14.1954C52.1704 13.6285 49.9607 14.3086 47.9925 16.0613H24.0075C22.0398 14.3088 19.8301 13.6289 17.8932 14.1954C16.0623 14.731 14.7233 16.2728 14.2191 18.4257C13.5363 21.3464 14.4666 24.798 16.7714 27.8952C19.4018 31.43 23.6738 34.3734 29.1358 36.4196C30.9049 38.8445 32.1323 42.7842 32.1602 46.1559H29.3273C28.8055 46.1559 28.3826 46.5757 28.3826 47.0934V52.3436H25.5484C25.0266 52.3436 24.6037 52.7634 24.6037 53.2811V61.0625C24.6037 61.5802 25.0266 62 25.5484 62H46.3323C46.8541 62 47.277 61.5802 47.277 61.0625V53.2811C47.277 52.7634 46.8541 52.3436 46.3323 52.3436H43.4981V47.0934C43.4981 46.5757 43.0752 46.1559 42.5535 46.1559H39.7206C39.7473 42.769 40.9302 38.9386 42.7013 36.4813C48.2182 34.4407 52.5349 31.4918 55.1951 27.9404C57.5249 24.8303 58.4673 21.3623 57.7806 18.4257ZM47.2652 17.9363C47.2511 18.5027 47.2228 19.0662 47.1832 19.6239H24.6976C24.658 19.0662 24.6299 18.5027 24.6156 17.9363H47.2652ZM18.2914 26.7814C16.3155 24.1261 15.5021 21.2351 16.0596 18.8499C16.4051 17.3741 17.2681 16.3331 18.4274 15.9941C19.7114 15.6183 21.2601 16.1419 22.7194 17.4326C22.7315 18.5168 22.7856 19.5972 22.8858 20.6495C22.8864 20.6565 22.8879 20.6633 22.8888 20.6702C23.3559 25.5767 24.7757 30.0662 26.875 33.4228C22.2898 31.2255 19.7037 28.6794 18.2914 26.7814ZM45.3877 54.2185V60.1249H26.4932V54.2185H45.3877ZM41.6088 48.0308V52.3434H30.2721V48.0308H41.6088ZM41.8784 34.4923C41.7099 34.6836 41.5487 34.8801 41.399 35.0754C41.3618 35.1165 41.329 35.1606 41.3 35.2069C39.2432 37.9526 37.8581 42.3233 37.8303 46.1557H34.0506C34.0225 42.2798 32.6138 37.8747 30.5229 35.1282C30.4971 35.0891 30.4685 35.0521 30.4372 35.0173C30.3016 34.8437 30.1566 34.6677 30.0016 34.4915C27.3869 31.5335 25.5444 26.8394 24.8802 21.4988H47.0005C46.3362 26.8394 44.4937 31.5335 41.8784 34.4923ZM53.6788 26.8218C52.2449 28.736 49.6172 31.3027 44.9546 33.5047C47.0823 30.139 48.5208 25.6172 48.992 20.672C48.9929 20.6645 48.9944 20.6572 48.9952 20.6496C49.092 19.6329 49.1456 18.5895 49.1602 17.5413C50.6548 16.1716 52.2536 15.6083 53.5733 15.994C54.7324 16.3331 55.5951 17.3739 55.9402 18.8497C56.5012 21.2486 55.677 24.1544 53.6788 26.8218Z" fill="white"/>
<path d="M42.5535 56.0935H33.1063C32.5845 56.0935 32.1616 56.5133 32.1616 57.031C32.1616 57.5487 32.5845 57.9685 33.1063 57.9685H42.5535C43.0753 57.9685 43.4982 57.5487 43.4982 57.031C43.4982 56.5133 43.0753 56.0935 42.5535 56.0935Z" fill="white"/>
</svg>
