<svg width="76" height="95" viewBox="0 0 76 95" fill="none" xmlns="http://www.w3.org/2000/svg">
<circle cx="38" cy="38" r="38" fill="#84AF5A"/>
<line x1="38" y1="69" x2="38" y2="95" stroke="white" stroke-width="2"/>
<path d="M17.9545 25.2502C17.4274 25.2502 17 25.6701 17 26.1878V31.8129C17 32.3306 17.4274 32.7504 17.9545 32.7504H22.7273V52.6258C22.7273 52.9552 22.9032 53.2604 23.1907 53.4298L37.5089 61.8675C37.8076 62.0432 38.1887 62.0451 38.4911 61.8675L42.4449 59.5374C42.897 59.271 43.0435 58.6952 42.7723 58.2512C42.5011 57.8071 41.9147 57.6632 41.4627 57.9295L38.9545 59.4076V47.3757H43.7273C44.1381 47.3757 44.5028 47.1175 44.6329 46.7347L46.3244 41.7506H51.3636V52.095L48.8278 53.5893C48.3757 53.8558 48.2292 54.4316 48.5004 54.8756C48.7717 55.3196 49.3579 55.4634 49.81 55.1973L52.8093 53.4298C53.0968 53.2603 53.2727 52.9551 53.2727 52.6258V32.7504H58.0455C58.5727 32.7504 59 32.3306 59 31.8129V26.1878C59 25.6701 58.5727 25.2502 58.0455 25.2502H52.5826L41.6598 18.8137C41.7633 18.4702 41.8182 18.1124 41.8182 17.7501C41.8182 15.6823 40.1053 14 38 14C35.8947 14 34.1818 15.6823 34.1818 17.7501C34.1818 18.1124 34.2367 18.4702 34.3402 18.8137L23.4175 25.2502H17.9545ZM38 21.5002C39.0079 21.5002 39.9705 21.1006 40.6765 20.421L48.8719 25.2502H27.1282L35.3236 20.4208C36.0301 21.1008 36.9925 21.5002 38 21.5002ZM37.0455 34.9667L34.7095 39.5553L29.836 37.162C29.4905 36.9924 29.0753 37.0437 28.7837 37.2923C28.492 37.5408 28.3814 37.9373 28.5035 38.2971L29.0393 39.8756H24.6364V27.1253H37.0455V34.9667ZM18.9091 30.8754V27.1253H22.7273V30.8754H18.9091ZM37.0455 59.4077L24.6364 52.095V41.7506H29.6756L31.3672 46.7347C31.4971 47.1175 31.8619 47.3757 32.2727 47.3757H37.0455V59.4077ZM43.0393 45.5007H32.9608C32.449 43.993 31.4873 41.1592 31.0435 39.8513L34.7096 41.6516C35.1809 41.8831 35.7544 41.6955 35.9903 41.2323L38.0002 37.2843L40.0101 41.2323C40.2459 41.6954 40.8193 41.8833 41.2908 41.6516L44.9569 39.8513C44.5121 41.1612 43.5507 43.9941 43.0393 45.5007ZM46.9608 39.8756L47.4966 38.297C47.6187 37.9372 47.5081 37.5408 47.2164 37.2922C46.9248 37.0438 46.5095 36.9923 46.1641 37.1619L41.2906 39.5552L38.9546 34.9666V27.1253H51.3637V39.8756H46.9608ZM57.0909 30.8754H53.2727V27.1253H57.0909V30.8754ZM38 15.875C39.0527 15.875 39.9091 16.7162 39.9091 17.7501C39.9091 18.7584 39.0839 19.6251 38 19.6251C36.9028 19.6251 36.0909 18.7449 36.0909 17.7501C36.0909 16.7162 36.9474 15.875 38 15.875Z" fill="white"/>
<path d="M45.6364 57.5008C46.1636 57.5008 46.5909 57.0811 46.5909 56.5633C46.5909 56.0456 46.1636 55.6258 45.6364 55.6258C45.1092 55.6258 44.6819 56.0456 44.6819 56.5633C44.6819 57.0811 45.1092 57.5008 45.6364 57.5008Z" fill="white"/>
</svg>
