<svg width="10" height="16" viewBox="0 0 10 16" fill="none" xmlns="http://www.w3.org/2000/svg">
<path d="M4.18025 11.2698C2.88921 11.1404 1.72516 10.8349 0.728543 10.0861C0.604882 9.99289 0.477209 9.90307 0.364362 9.79901C-0.071854 9.39651 -0.115807 8.93552 0.229363 8.46046C0.52465 8.05394 1.02034 7.94518 1.53557 8.17861C1.63533 8.22385 1.73039 8.28032 1.82144 8.34098C3.6788 9.56709 6.23034 9.60094 8.09468 8.39612C8.27938 8.26005 8.47682 8.14912 8.70566 8.09248C9.15059 7.98272 9.56553 8.13973 9.80431 8.51375C10.0771 8.94089 10.0736 9.3578 9.7375 9.68942C9.22193 10.1978 8.60188 10.5656 7.91293 10.8224C7.26149 11.065 6.54795 11.1872 5.84174 11.2683C5.94831 11.3797 5.99854 11.4345 6.06516 11.4988C7.02411 12.4245 7.98723 13.3463 8.94304 14.2748C9.26867 14.5912 9.3367 14.9835 9.1574 15.3514C8.96135 15.7536 8.52252 16.0182 8.09223 15.9899C7.81962 15.9718 7.60701 15.8414 7.41811 15.6586C6.69446 14.959 5.9572 14.2723 5.2482 13.5594C5.04186 13.3522 4.94262 13.3914 4.76053 13.5713C4.03251 14.2914 3.29264 15.0004 2.54841 15.7053C2.21422 16.0219 1.81655 16.0789 1.429 15.8981C1.01703 15.7062 0.75488 15.3022 0.775112 14.8962C0.789066 14.6215 0.929645 14.4117 1.12586 14.2235C2.07486 13.3131 3.02125 12.4004 3.96798 11.4885C4.0306 11.4278 4.08903 11.3634 4.18025 11.2698Z" fill="white"/>
<path d="M4.96669 8.09851C2.66352 8.09096 0.774938 6.25658 0.788368 4.0403C0.801624 1.79955 2.69143 -0.00618417 5.01727 1.59185e-05C7.34783 0.00604844 9.21844 1.83776 9.20676 4.10179C9.1949 6.31355 7.29323 8.10621 4.96669 8.09851ZM7.05987 4.04566C7.05585 2.94523 6.14366 2.06917 5.00053 2.06816C3.84781 2.06699 2.92741 2.95897 2.93631 4.06945C2.94485 5.1657 3.8649 6.03555 5.01117 6.03153C6.15395 6.02768 7.0637 5.14592 7.05987 4.04566Z" fill="white"/>
</svg>
