<svg width="80" height="80" viewBox="0 0 80 80" fill="none" xmlns="http://www.w3.org/2000/svg">
<path d="M40 80C62.0914 80 80 62.0914 80 40C80 17.9086 62.0914 0 40 0C17.9086 0 0 17.9086 0 40C0 62.0914 17.9086 80 40 80Z" fill="#34A5E6"/>
<path d="M43.2459 79.897L22.4347 59.0599L21.327 56.407L17.0256 49.8391L15.0938 40.7729L16.3816 32.6852L20.142 24.4173L28.9508 17.7721L38.017 15.1191L47.0833 16.0721L59.2147 22.3826L79.8716 43.0651C78.4034 62.6659 62.795 78.326 43.2198 79.8971L43.2459 79.897Z" fill="#1590D6"/>
<path d="M20.5027 57.2054C16.459 52.6209 13.9863 46.5937 13.9863 40.0001C13.9863 29.8006 19.833 20.9917 28.3841 16.7161L40.0005 40L20.5027 57.2054Z" fill="#F9B024"/>
<path d="M40.0005 14.0116C54.3727 14.0116 66.0148 25.6536 66.0148 40.0258C66.0148 54.398 54.3727 66.0399 40.0005 66.0399C25.6284 66.0399 13.9863 54.398 13.9863 40.0258C13.9863 25.6536 25.6284 14.0116 40.0005 14.0116ZM41.1338 16.6903V23.5416C49.3501 24.1082 55.9182 30.6761 56.4848 38.8925H63.336C62.7695 26.8899 53.1365 17.2571 41.1338 16.6903ZM41.1338 25.6794V33.6383C43.8126 34.1019 45.9246 36.2139 46.3882 38.8927H54.3471C53.8062 31.861 48.1912 26.2202 41.1338 25.6794ZM41.1338 35.673V38.8925H44.3534C43.9413 37.3214 42.7049 36.0852 41.1338 35.673ZM63.336 41.1333H56.4848C55.9182 49.3496 49.3502 55.9177 41.1338 56.4842V63.3355C53.1365 62.7689 62.7695 53.136 63.336 41.1333ZM54.347 41.1333H46.388C45.9245 43.8121 43.8124 45.9241 41.1337 46.3877V54.3466C48.1654 53.8057 53.8062 48.1907 54.347 41.1333ZM44.3534 41.1333H41.1338V44.3528C42.7049 43.9408 43.9413 42.7044 44.3534 41.1333ZM38.893 63.3355V56.4842C30.6768 55.9177 24.1087 49.3497 23.5421 41.1333H16.6909C17.2576 53.136 26.8904 62.7689 38.893 63.3355ZM38.893 54.3464V46.3875C36.2143 45.9239 34.1023 43.8119 33.6387 41.1332H25.6798C26.2207 48.1649 31.8357 53.8057 38.893 54.3464ZM38.893 44.3528V41.1333H35.6735C36.0857 42.7044 37.322 43.9408 38.893 44.3528ZM16.6909 38.8925H23.5421C24.1087 30.6763 30.6766 24.1082 38.893 23.5416V16.6903C26.8904 17.2571 17.2576 26.8899 16.6909 38.8925ZM25.6799 38.8925H33.6388C34.1024 36.2138 36.2145 34.1018 38.8932 33.6382V25.6793C31.8615 26.2202 26.2207 31.8352 25.6799 38.8925ZM35.6735 38.8925H38.893V35.673C37.322 36.0852 36.0857 37.3214 35.6735 38.8925Z" fill="white"/>
<path d="M51.1253 53.78C52.7327 53.78 54.0358 52.477 54.0358 50.8696C54.0358 49.2622 52.7327 47.9591 51.1253 47.9591C49.5179 47.9591 48.2148 49.2622 48.2148 50.8696C48.2148 52.477 49.5179 53.78 51.1253 53.78Z" fill="#F9B024"/>
<path d="M46.7991 46.5422H49.5552V47.1605H47.4173V49.2983H46.799V46.5422H46.7991ZM52.6973 46.5422H55.4534V49.2983H54.8351V47.1605H52.6973V46.5422ZM55.4534 52.4405V55.1966H52.6973V54.5782H54.8351V52.4404H55.4534V52.4405ZM49.5549 55.1965H46.7988V52.4404H47.4171V54.5782H49.5549V55.1965Z" fill="#E1E5E6"/>
<path d="M48.2171 29.44C49.8245 29.44 51.1276 28.1369 51.1276 26.5295C51.1276 24.9221 49.8245 23.619 48.2171 23.619C46.6097 23.619 45.3066 24.9221 45.3066 26.5295C45.3066 28.1369 46.6097 29.44 48.2171 29.44Z" fill="#F9B024"/>
<path d="M43.8633 22.2021H46.6194V22.8203H44.4816V24.9581H43.8634V22.2021H43.8633ZM49.7617 22.2021H52.5178V24.9582H51.8995V22.8204H49.7617V22.2021ZM52.5175 28.1004V30.8565H49.7614V30.2384H51.8992V28.1006L52.5175 28.1004ZM46.6194 30.8564H43.8633V28.1003H44.4814V30.2381H46.6192V30.8564H46.6194Z" fill="#E1E5E6"/>
</svg>
